<?xml version="1.0" encoding="UTF-8"?><svg id="Layer_1" xmlns="http://www.w3.org/2000/svg" viewBox="0 0 1823.84 549.71"><defs><style>.cls-1{fill:#647362;}.cls-1,.cls-2,.cls-3,.cls-4{stroke-width:0px;}.cls-2{fill:#d2d9b8;}.cls-3{fill:#f0f1f2;}.cls-4{fill:#e5e5e3;}</style></defs><rect class="cls-4" x="147.78" y="122.42" width="304.87" height="304.87" rx="49.33" ry="49.33"/><circle class="cls-2" cx="300.46" cy="268.34" r="73.11"/><path class="cls-1" d="m201.83,338.59l24.36-45.1c3.15-5.82,10.75-7.46,16.01-3.44l15.59,11.91c4.73,3.62,11.5,2.7,15.11-2.04l35.06-46.1c4.13-5.43,12.21-5.7,16.69-.56l36.21,41.54,36.38,41.74c6.07,6.97,1.13,17.84-8.11,17.84l-177.81.08c-8.16,0-13.36-8.71-9.48-15.89Z"/><path class="cls-3" d="m549.17,305.55v-77.14h9.04l34.6,58.3h-4.85l34.16-58.3h9.04l.11,77.14h-10.58l-.11-60.5h2.53l-30.42,51.14h-5.07l-30.64-51.14h2.76v60.5h-10.58Z"/><path class="cls-3" d="m653.75,235.9c-2.06,0-3.77-.66-5.12-1.98-1.36-1.32-2.04-2.94-2.04-4.85s.68-3.64,2.04-4.96c1.36-1.32,3.07-1.98,5.12-1.98s3.76.64,5.12,1.93c1.36,1.29,2.04,2.88,2.04,4.79s-.66,3.66-1.98,5.01c-1.32,1.36-3.05,2.04-5.18,2.04Zm-5.29,69.65v-58.41h10.58v58.41h-10.58Z"/><path class="cls-3" d="m674.8,305.55v-81.77h10.58v81.77h-10.58Zm8.6-14.11l.22-13.56,33.61-30.75h12.78l-25.79,25.35-5.73,4.85-15.1,14.11Zm36.04,14.11l-22.92-28.43,6.83-8.49,29.1,36.92h-13Z"/><path class="cls-3" d="m761.87,306.21c-6.25,0-11.74-1.28-16.48-3.86-4.74-2.57-8.41-6.1-11.02-10.58-2.61-4.48-3.91-9.62-3.91-15.43s1.27-10.95,3.8-15.43c2.53-4.48,6.02-7.99,10.47-10.52,4.45-2.53,9.46-3.8,15.04-3.8s10.65,1.25,14.99,3.75c4.33,2.5,7.73,6.01,10.19,10.52,2.46,4.52,3.69,9.79,3.69,15.81,0,.44-.02.96-.05,1.54-.04.59-.09,1.14-.17,1.65h-49.7v-7.6h44.19l-4.3,2.65c.07-3.75-.7-7.09-2.31-10.03-1.62-2.94-3.84-5.24-6.67-6.89-2.83-1.65-6.12-2.48-9.86-2.48s-6.94.83-9.81,2.48c-2.87,1.65-5.11,3.97-6.72,6.94-1.62,2.98-2.42,6.37-2.42,10.19v1.76c0,3.89.9,7.37,2.7,10.41,1.8,3.05,4.31,5.42,7.55,7.11,3.23,1.69,6.94,2.53,11.13,2.53,3.45,0,6.59-.59,9.42-1.76,2.83-1.17,5.31-2.94,7.44-5.29l5.84,6.83c-2.64,3.09-5.93,5.44-9.86,7.05-3.93,1.62-8.32,2.42-13.17,2.42Z"/><path class="cls-3" d="m848.16,306.43c-5.88,0-11.5-.9-16.86-2.7-5.36-1.8-9.59-4.13-12.67-7l4.08-8.6c2.94,2.57,6.68,4.7,11.24,6.39,4.56,1.69,9.29,2.53,14.22,2.53,4.48,0,8.12-.51,10.91-1.54,2.79-1.03,4.85-2.44,6.17-4.24,1.32-1.8,1.98-3.84,1.98-6.12,0-2.64-.86-4.77-2.59-6.39-1.73-1.62-3.97-2.92-6.72-3.91-2.76-.99-5.79-1.85-9.09-2.59-3.31-.73-6.63-1.6-9.97-2.59-3.34-.99-6.39-2.26-9.15-3.8-2.76-1.54-4.98-3.62-6.67-6.23-1.69-2.61-2.54-5.97-2.54-10.08s1.05-7.62,3.14-10.97c2.09-3.34,5.33-6.02,9.7-8.05,4.37-2.02,9.94-3.03,16.7-3.03,4.48,0,8.93.59,13.34,1.76,4.41,1.18,8.23,2.87,11.46,5.07l-3.64,8.82c-3.31-2.2-6.8-3.8-10.47-4.79-3.67-.99-7.24-1.49-10.69-1.49-4.34,0-7.9.55-10.69,1.65-2.79,1.1-4.83,2.57-6.12,4.41-1.29,1.84-1.93,3.89-1.93,6.17,0,2.72.86,4.89,2.59,6.5,1.73,1.62,3.97,2.9,6.72,3.86,2.75.96,5.79,1.82,9.09,2.59,3.31.77,6.63,1.64,9.97,2.59,3.34.96,6.39,2.2,9.15,3.75,2.76,1.54,4.98,3.6,6.67,6.17,1.69,2.57,2.54,5.88,2.54,9.92s-1.07,7.51-3.2,10.86c-2.13,3.34-5.42,6.03-9.86,8.05-4.45,2.02-10.05,3.03-16.81,3.03Z"/><path class="cls-3" d="m879.79,255.84v-8.71h37.25v8.71h-37.25Zm28.43,50.37c-5.88,0-10.43-1.58-13.67-4.74-3.23-3.16-4.85-7.68-4.85-13.56v-53.56h10.58v53.12c0,3.16.79,5.58,2.37,7.27,1.58,1.69,3.84,2.53,6.78,2.53,3.31,0,6.06-.92,8.27-2.76l3.31,7.6c-1.62,1.4-3.55,2.42-5.79,3.09-2.24.66-4.57.99-7,.99Z"/><path class="cls-3" d="m929.38,305.55v-58.41h10.14v15.87l-.99-3.97c1.62-4.04,4.33-7.13,8.15-9.26,3.82-2.13,8.52-3.2,14.11-3.2v10.25c-.44-.07-.86-.11-1.27-.11h-1.16c-5.66,0-10.14,1.69-13.45,5.07-3.31,3.38-4.96,8.27-4.96,14.66v29.09h-10.58Z"/><path class="cls-3" d="m993.85,306.21c-5.81,0-11-1.28-15.59-3.86-4.59-2.57-8.21-6.12-10.86-10.64-2.65-4.52-3.97-9.64-3.97-15.37s1.32-10.93,3.97-15.37c2.64-4.44,6.24-7.95,10.8-10.52,4.56-2.57,9.77-3.86,15.65-3.86s11,1.27,15.59,3.8c4.59,2.53,8.19,6.04,10.8,10.52,2.61,4.48,3.91,9.63,3.91,15.43s-1.31,10.95-3.91,15.43c-2.61,4.48-6.21,8.01-10.8,10.58-4.59,2.57-9.79,3.86-15.59,3.86Zm0-9.26c3.75,0,7.11-.84,10.08-2.53,2.98-1.69,5.31-4.09,7-7.22,1.69-3.12,2.53-6.74,2.53-10.86s-.85-7.81-2.53-10.86c-1.69-3.05-4.02-5.42-7-7.11-2.97-1.69-6.34-2.53-10.08-2.53s-7.09.85-10.03,2.53c-2.94,1.69-5.29,4.06-7.05,7.11-1.76,3.05-2.64,6.67-2.64,10.86s.88,7.73,2.64,10.86c1.76,3.12,4.12,5.53,7.05,7.22,2.94,1.69,6.28,2.53,10.03,2.53Z"/><path class="cls-3" d="m1065.59,246.59c4.77,0,8.98.92,12.62,2.76,3.64,1.84,6.48,4.63,8.54,8.38,2.06,3.75,3.09,8.49,3.09,14.22v33.61h-10.58v-32.4c0-5.66-1.38-9.92-4.13-12.78-2.75-2.87-6.63-4.3-11.63-4.3-3.75,0-7.02.74-9.81,2.2-2.79,1.47-4.94,3.64-6.45,6.5-1.51,2.87-2.26,6.43-2.26,10.69v30.09h-10.58v-58.41h10.14v15.76l-1.65-4.19c1.91-3.82,4.85-6.79,8.82-8.93,3.97-2.13,8.6-3.2,13.89-3.2Z"/><path class="cls-3" d="m1129.29,303.12c-5.66,0-10.71-1.19-15.15-3.58-4.45-2.39-7.97-5.71-10.58-9.97-2.61-4.26-3.91-9.18-3.91-14.77s1.3-10.6,3.91-14.82c2.61-4.22,6.13-7.51,10.58-9.86,4.44-2.35,9.49-3.53,15.15-3.53,5,0,9.55,1.01,13.67,3.03,4.11,2.02,7.4,5.12,9.86,9.31,2.46,4.19,3.69,9.48,3.69,15.87s-1.23,11.57-3.69,15.76c-2.46,4.19-5.75,7.33-9.86,9.42-4.12,2.09-8.67,3.14-13.67,3.14Zm1.32,24.47c-5.36,0-10.56-.75-15.59-2.26-5.03-1.51-9.13-3.66-12.29-6.45l5.07-8.16c2.72,2.35,6.06,4.21,10.03,5.57,3.97,1.36,8.12,2.04,12.45,2.04,6.9,0,11.97-1.62,15.21-4.85,3.23-3.23,4.85-8.15,4.85-14.77v-12.34l1.1-11.57-.55-11.68v-15.98h10.03v50.48c0,10.28-2.57,17.85-7.71,22.7-5.14,4.85-12.67,7.27-22.59,7.27Zm-.11-33.72c3.89,0,7.35-.81,10.36-2.42,3.01-1.61,5.38-3.86,7.11-6.72,1.73-2.87,2.59-6.17,2.59-9.92s-.86-7.05-2.59-9.92c-1.73-2.87-4.1-5.09-7.11-6.67-3.01-1.58-6.47-2.37-10.36-2.37s-7.37.79-10.41,2.37c-3.05,1.58-5.44,3.8-7.16,6.67-1.73,2.87-2.59,6.17-2.59,9.92s.86,7.05,2.59,9.92c1.73,2.87,4.11,5.11,7.16,6.72,3.05,1.62,6.52,2.42,10.41,2.42Z"/><path class="cls-2" d="m1231.48,306.43c-5.88,0-11.3-.97-16.26-2.92-4.96-1.95-9.26-4.7-12.89-8.27-3.64-3.56-6.48-7.73-8.54-12.51-2.06-4.78-3.08-10.03-3.08-15.76s1.03-10.98,3.08-15.76c2.06-4.78,4.92-8.94,8.6-12.51,3.67-3.56,7.99-6.32,12.95-8.27,4.96-1.95,10.38-2.92,16.26-2.92s11.44,1.01,16.48,3.03c5.03,2.02,9.31,5.01,12.84,8.98l-7.16,6.94c-2.94-3.08-6.25-5.38-9.92-6.89-3.67-1.5-7.6-2.26-11.79-2.26s-8.36.74-12.07,2.2c-3.71,1.47-6.93,3.53-9.64,6.17-2.72,2.64-4.83,5.79-6.34,9.42-1.51,3.64-2.26,7.59-2.26,11.85s.75,8.21,2.26,11.85c1.51,3.64,3.62,6.78,6.34,9.42,2.72,2.65,5.93,4.7,9.64,6.17,3.71,1.47,7.73,2.2,12.07,2.2s8.12-.75,11.79-2.26c3.67-1.5,6.98-3.84,9.92-7l7.16,6.94c-3.53,3.97-7.81,6.98-12.84,9.04-5.03,2.06-10.56,3.09-16.59,3.09Z"/><path class="cls-2" d="m1293.31,306.21c-5.81,0-11-1.29-15.59-3.86-4.59-2.57-8.21-6.12-10.86-10.63-2.65-4.52-3.97-9.64-3.97-15.37s1.32-10.93,3.97-15.37c2.64-4.44,6.24-7.95,10.8-10.53,4.56-2.57,9.77-3.86,15.65-3.86s11,1.27,15.59,3.8c4.59,2.53,8.19,6.04,10.8,10.52,2.61,4.48,3.91,9.63,3.91,15.43s-1.31,10.95-3.91,15.43c-2.61,4.48-6.21,8.01-10.8,10.58-4.59,2.57-9.79,3.86-15.59,3.86Zm0-9.26c3.75,0,7.11-.84,10.08-2.53,2.98-1.69,5.31-4.09,7-7.22,1.69-3.12,2.53-6.74,2.53-10.86s-.85-7.81-2.53-10.86c-1.69-3.05-4.02-5.42-7-7.11-2.97-1.69-6.34-2.53-10.08-2.53s-7.09.85-10.03,2.53c-2.94,1.69-5.29,4.06-7.05,7.11-1.76,3.05-2.64,6.67-2.64,10.86s.88,7.73,2.64,10.86c1.76,3.12,4.12,5.53,7.05,7.22,2.94,1.69,6.28,2.53,10.03,2.53Z"/><path class="cls-2" d="m1350.39,306.21c-4.34,0-8.14-.73-11.41-2.2-3.27-1.47-5.79-3.51-7.55-6.12-1.76-2.61-2.64-5.57-2.64-8.87s.75-6.02,2.26-8.6c1.5-2.57,3.97-4.63,7.38-6.17,3.42-1.54,8.03-2.31,13.83-2.31h18.52v7.6h-18.07c-5.29,0-8.85.88-10.69,2.64-1.84,1.76-2.76,3.89-2.76,6.39,0,2.87,1.14,5.16,3.42,6.89,2.28,1.73,5.44,2.59,9.48,2.59s7.44-.88,10.41-2.65c2.98-1.76,5.12-4.33,6.45-7.71l2.09,7.27c-1.4,3.45-3.86,6.19-7.38,8.21-3.53,2.02-7.97,3.03-13.34,3.03Zm19.18-.66v-12.34l-.55-2.31v-21.05c0-4.48-1.3-7.95-3.91-10.41-2.61-2.46-6.52-3.69-11.74-3.69-3.45,0-6.83.57-10.14,1.71-3.31,1.14-6.1,2.66-8.38,4.57l-4.41-7.94c3.01-2.42,6.63-4.28,10.86-5.56,4.22-1.29,8.65-1.93,13.28-1.93,8.01,0,14.18,1.95,18.51,5.84,4.34,3.9,6.5,9.85,6.5,17.85v35.27h-10.03Z"/><path class="cls-2" d="m1420.26,306.21c-5.95,0-11.26-1.29-15.93-3.86-4.67-2.57-8.32-6.1-10.97-10.58-2.65-4.48-3.97-9.62-3.97-15.43s1.32-10.95,3.97-15.43c2.64-4.48,6.3-7.99,10.97-10.52,4.66-2.53,9.97-3.8,15.93-3.8,5.29,0,10.01,1.05,14.16,3.14,4.15,2.09,7.36,5.2,9.64,9.31l-8.04,5.18c-1.91-2.87-4.24-4.98-7-6.34-2.76-1.36-5.71-2.04-8.87-2.04-3.82,0-7.24.85-10.25,2.53-3.01,1.69-5.4,4.06-7.16,7.11-1.76,3.05-2.64,6.67-2.64,10.86s.88,7.82,2.64,10.91c1.76,3.09,4.15,5.47,7.16,7.16,3.01,1.69,6.43,2.53,10.25,2.53,3.16,0,6.12-.68,8.87-2.04,2.75-1.36,5.09-3.47,7-6.34l8.04,5.07c-2.28,4.04-5.49,7.15-9.64,9.31-4.15,2.17-8.87,3.25-14.16,3.25Z"/><path class="cls-2" d="m1483.74,246.59c4.77,0,8.98.92,12.62,2.76,3.64,1.84,6.48,4.63,8.54,8.38,2.06,3.75,3.09,8.49,3.09,14.22v33.61h-10.58v-32.4c0-5.66-1.38-9.92-4.13-12.78-2.75-2.87-6.63-4.3-11.63-4.3-3.75,0-7.02.74-9.81,2.2-2.79,1.47-4.94,3.64-6.45,6.5-1.51,2.87-2.26,6.43-2.26,10.69v30.09h-10.58v-81.77h10.58v39.12l-2.09-4.19c1.91-3.82,4.85-6.8,8.82-8.93,3.97-2.13,8.6-3.2,13.89-3.2Z"/><path class="cls-2" d="m1528.49,235.9c-2.06,0-3.77-.66-5.12-1.98-1.36-1.32-2.04-2.94-2.04-4.85s.68-3.64,2.04-4.96c1.36-1.32,3.07-1.98,5.12-1.98s3.76.64,5.12,1.93c1.36,1.29,2.04,2.88,2.04,4.79s-.66,3.66-1.98,5.01c-1.32,1.36-3.05,2.04-5.18,2.04Zm-5.29,69.65v-58.41h10.58v58.41h-10.58Z"/><path class="cls-2" d="m1580.73,246.59c4.77,0,8.98.92,12.62,2.76,3.64,1.84,6.48,4.63,8.54,8.38,2.06,3.75,3.09,8.49,3.09,14.22v33.61h-10.58v-32.4c0-5.66-1.38-9.92-4.13-12.78-2.75-2.87-6.63-4.3-11.63-4.3-3.75,0-7.02.74-9.81,2.2-2.79,1.47-4.94,3.64-6.45,6.5-1.51,2.87-2.26,6.43-2.26,10.69v30.09h-10.58v-58.41h10.14v15.76l-1.65-4.19c1.91-3.82,4.85-6.8,8.82-8.93,3.97-2.13,8.6-3.2,13.89-3.2Z"/><path class="cls-2" d="m1644.43,303.12c-5.66,0-10.71-1.19-15.15-3.58-4.45-2.39-7.97-5.71-10.58-9.97-2.61-4.26-3.91-9.18-3.91-14.77s1.3-10.6,3.91-14.82c2.61-4.22,6.13-7.51,10.58-9.86,4.44-2.35,9.49-3.53,15.15-3.53,5,0,9.55,1.01,13.67,3.03,4.11,2.02,7.4,5.13,9.86,9.31,2.46,4.19,3.69,9.48,3.69,15.87s-1.23,11.57-3.69,15.76c-2.46,4.19-5.75,7.33-9.86,9.42-4.12,2.09-8.67,3.14-13.67,3.14Zm1.32,24.47c-5.36,0-10.56-.75-15.59-2.26-5.03-1.51-9.13-3.66-12.29-6.45l5.07-8.16c2.72,2.35,6.06,4.21,10.03,5.57,3.97,1.36,8.12,2.04,12.45,2.04,6.9,0,11.97-1.62,15.21-4.85,3.23-3.23,4.85-8.16,4.85-14.77v-12.34l1.1-11.57-.55-11.68v-15.98h10.03v50.47c0,10.29-2.57,17.85-7.71,22.7-5.14,4.85-12.67,7.27-22.59,7.27Zm-.11-33.72c3.89,0,7.35-.81,10.36-2.42,3.01-1.62,5.38-3.86,7.11-6.72,1.73-2.87,2.59-6.17,2.59-9.92s-.86-7.05-2.59-9.92c-1.73-2.87-4.1-5.09-7.11-6.67-3.01-1.58-6.47-2.37-10.36-2.37s-7.37.79-10.41,2.37c-3.05,1.58-5.44,3.8-7.16,6.67-1.73,2.87-2.59,6.17-2.59,9.92s.86,7.05,2.59,9.92c1.73,2.87,4.11,5.11,7.16,6.72,3.05,1.62,6.52,2.42,10.41,2.42Z"/></svg>